<svg width="480" height="220" viewBox="0 0 480 220" fill="none" xmlns="http://www.w3.org/2000/svg">
<rect width="480" height="220" fill="white"/>
<rect width="50" height="50" transform="translate(215 85)" fill="white"/>
<path d="M238.75 93.75H230C229.312 93.75 228.75 94.3125 228.75 95V125C228.75 125.688 229.312 126.25 230 126.25H250C250.688 126.25 251.25 125.688 251.25 125V106.25H244.375C241.266 106.25 238.75 103.734 238.75 100.625V93.75ZM249.695 102.5L242.5 95.3047V100.625C242.5 101.664 243.336 102.5 244.375 102.5H249.695ZM225 95C225 92.2422 227.242 90 230 90H240.43C241.758 90 243.031 90.5234 243.969 91.4609L253.539 101.039C254.477 101.977 255 103.25 255 104.578V125C255 127.758 252.758 130 250 130H230C227.242 130 225 127.758 225 125V95ZM245.266 123.75H234.734C233.5 123.75 232.5 122.75 232.5 121.516C232.5 121.016 232.664 120.539 232.969 120.141L238.25 113.352C238.672 112.812 239.32 112.5 240 112.5C240.68 112.5 241.328 112.812 241.75 113.352L247.031 120.148C247.336 120.539 247.5 121.023 247.5 121.523C247.5 122.758 246.5 123.758 245.266 123.758V123.75ZM233.75 107.5C235.133 107.5 236.25 108.617 236.25 110C236.25 111.383 235.133 112.5 233.75 112.5C232.367 112.5 231.25 111.383 231.25 110C231.25 108.617 232.367 107.5 233.75 107.5Z" fill="black" fill-opacity="0.5"/>
</svg>
