<svg width="640" height="360" viewBox="0 0 640 360" fill="none" xmlns="http://www.w3.org/2000/svg">
<path d="M0 0H640V325.576C393.055 355.941 252.77 355.005 0 325.576V0Z" fill="url(#paint0_radial_185_4)"/>
<path d="M68 289.992C73.5152 298.255 79.5337 306.08 86.0123 313.411L553.988 314.221C560.466 306.889 566.485 299.064 572 290.801L68 289.992Z" fill="#C3C8DB"/>
<path d="M413.747 212.129V283.775C413.748 284.688 414.088 285.564 414.692 286.21C415.296 286.855 416.116 287.218 416.971 287.219H516.349C517.203 287.218 518.023 286.855 518.627 286.209C519.231 285.564 519.571 284.688 519.572 283.775V212.129C519.57 211.217 519.23 210.342 518.625 209.698C518.021 209.053 517.203 208.69 516.349 208.689H416.971C416.117 208.69 415.298 209.053 414.694 209.698C414.09 210.342 413.749 211.217 413.747 212.129Z" fill="#2B2E50"/>
<path d="M416.079 213.019V282.89C416.08 283.377 416.262 283.845 416.584 284.19C416.907 284.535 417.345 284.729 417.801 284.73H515.525C515.981 284.729 516.419 284.535 516.741 284.19C517.064 283.845 517.246 283.377 517.247 282.89V213.019C517.247 212.531 517.066 212.062 516.743 211.717C516.42 211.371 515.982 211.176 515.525 211.175H417.801C417.344 211.176 416.906 211.371 416.583 211.717C416.26 212.062 416.079 212.531 416.079 213.019Z" fill="#1F213A"/>
<path d="M411.669 297.747C411.851 297.991 412.082 298.189 412.345 298.324C412.609 298.459 412.897 298.529 413.19 298.528H519.604C519.895 298.527 520.182 298.457 520.444 298.323C520.707 298.189 520.938 297.995 521.121 297.753C521.305 297.512 521.435 297.23 521.504 296.928C521.572 296.625 521.576 296.311 521.517 296.007L519.865 287.624C519.796 287.282 519.649 286.964 519.436 286.699C519.223 286.433 518.951 286.229 518.645 286.105C518.424 286.012 518.188 285.964 517.951 285.964H414.835C414.597 285.964 414.361 286.012 414.14 286.105C413.834 286.229 413.562 286.433 413.349 286.699C413.136 286.964 412.989 287.282 412.92 287.624L411.268 296.007C411.21 296.311 411.215 296.625 411.284 296.927C411.353 297.228 411.484 297.51 411.668 297.75L411.669 297.747Z" fill="#1F213A"/>
<path d="M415.926 289.572H418.537C418.721 289.572 418.87 289.412 418.87 289.216V287.827C418.87 287.631 418.721 287.471 418.537 287.471H415.926C415.742 287.471 415.593 287.631 415.593 287.827V289.216C415.593 289.412 415.742 289.572 415.926 289.572Z" fill="#2B2E50"/>
<path d="M416.004 293.073H418.615C418.799 293.073 418.948 292.914 418.948 292.717V291.329C418.948 291.132 418.799 290.972 418.615 290.972H416.004C415.82 290.972 415.671 291.132 415.671 291.329V292.717C415.671 292.914 415.82 293.073 416.004 293.073Z" fill="#2B2E50"/>
<path d="M485.427 297.275H459.971C459.87 297.275 459.773 297.232 459.701 297.156C459.629 297.079 459.589 296.976 459.589 296.867V295.583C459.589 295.475 459.629 295.371 459.701 295.294C459.773 295.218 459.87 295.175 459.971 295.175H485.427C485.529 295.175 485.626 295.218 485.697 295.294C485.769 295.371 485.809 295.475 485.809 295.583V296.867C485.809 296.976 485.769 297.079 485.697 297.156C485.626 297.232 485.529 297.275 485.427 297.275Z" fill="#2B2E50"/>
<path d="M433.156 226.462H430.621C430.032 226.462 429.554 226.972 429.554 227.601V227.932C429.554 228.562 430.032 229.072 430.621 229.072H433.156C433.745 229.072 434.222 228.562 434.222 227.932V227.601C434.222 226.972 433.745 226.462 433.156 226.462Z" fill="white"/>
<path d="M458.606 226.462H456.071C455.482 226.462 455.004 226.972 455.004 227.601V227.932C455.004 228.562 455.482 229.072 456.071 229.072H458.606C459.195 229.072 459.673 228.562 459.673 227.932V227.601C459.673 226.972 459.195 226.462 458.606 226.462Z" fill="white"/>
<path d="M465.816 226.462H463.281C462.692 226.462 462.215 226.972 462.215 227.601V227.932C462.215 228.562 462.692 229.072 463.281 229.072H465.816C466.405 229.072 466.883 228.562 466.883 227.932V227.601C466.883 226.972 466.405 226.462 465.816 226.462Z" fill="white"/>
<path d="M451.683 226.244H437.543C436.954 226.244 436.477 226.754 436.477 227.383V227.714C436.477 228.344 436.954 228.854 437.543 228.854H451.683C452.272 228.854 452.75 228.344 452.75 227.714V227.383C452.75 226.754 452.272 226.244 451.683 226.244Z" fill="white"/>
<path d="M485.616 226.244H471.476C470.887 226.244 470.409 226.754 470.409 227.383V227.714C470.409 228.344 470.887 228.854 471.476 228.854H485.616C486.205 228.854 486.682 228.344 486.682 227.714V227.383C486.682 226.754 486.205 226.244 485.616 226.244Z" fill="white"/>
<path d="M439.943 232.352H437.408C436.819 232.352 436.341 232.862 436.341 233.491V233.823C436.341 234.452 436.819 234.962 437.408 234.962H439.943C440.532 234.962 441.009 234.452 441.009 233.823V233.491C441.009 232.862 440.532 232.352 439.943 232.352Z" fill="white"/>
<path d="M465.392 232.352H462.857C462.268 232.352 461.79 232.862 461.79 233.491V233.823C461.79 234.452 462.268 234.962 462.857 234.962H465.392C465.981 234.962 466.459 234.452 466.459 233.823V233.491C466.459 232.862 465.981 232.352 465.392 232.352Z" fill="white"/>
<path d="M472.603 232.352H470.068C469.479 232.352 469.002 232.862 469.002 233.491V233.823C469.002 234.452 469.479 234.962 470.068 234.962H472.603C473.192 234.962 473.67 234.452 473.67 233.823V233.491C473.67 232.862 473.192 232.352 472.603 232.352Z" fill="white"/>
<path d="M458.47 232.134H444.33C443.741 232.134 443.264 232.644 443.264 233.274V233.605C443.264 234.234 443.741 234.744 444.33 234.744H458.47C459.059 234.744 459.537 234.234 459.537 233.605V233.274C459.537 232.644 459.059 232.134 458.47 232.134Z" fill="white"/>
<path d="M492.402 232.134H478.262C477.673 232.134 477.196 232.644 477.196 233.274V233.605C477.196 234.234 477.673 234.744 478.262 234.744H492.402C492.991 234.744 493.468 234.234 493.468 233.605V233.274C493.468 232.644 492.991 232.134 492.402 232.134Z" fill="white"/>
<path d="M446.729 238.243H444.194C443.605 238.243 443.128 238.754 443.128 239.383V239.714C443.128 240.343 443.605 240.853 444.194 240.853H446.729C447.318 240.853 447.796 240.343 447.796 239.714V239.383C447.796 238.754 447.318 238.243 446.729 238.243Z" fill="white"/>
<path d="M472.178 238.243H469.643C469.054 238.243 468.576 238.754 468.576 239.383V239.714C468.576 240.343 469.054 240.853 469.643 240.853H472.178C472.767 240.853 473.245 240.343 473.245 239.714V239.383C473.245 238.754 472.767 238.243 472.178 238.243Z" fill="white"/>
<path d="M479.389 238.243H476.854C476.265 238.243 475.788 238.754 475.788 239.383V239.714C475.788 240.343 476.265 240.853 476.854 240.853H479.389C479.978 240.853 480.456 240.343 480.456 239.714V239.383C480.456 238.754 479.978 238.243 479.389 238.243Z" fill="white"/>
<path d="M465.256 238.025H451.117C450.528 238.025 450.05 238.535 450.05 239.165V239.496C450.05 240.125 450.528 240.635 451.117 240.635H465.256C465.845 240.635 466.323 240.125 466.323 239.496V239.165C466.323 238.535 465.845 238.025 465.256 238.025Z" fill="white"/>
<path d="M499.189 238.025H485.049C484.46 238.025 483.982 238.535 483.982 239.165V239.496C483.982 240.125 484.46 240.635 485.049 240.635H499.189C499.778 240.635 500.255 240.125 500.255 239.496V239.165C500.255 238.535 499.778 238.025 499.189 238.025Z" fill="white"/>
<path d="M453.516 244.134H450.98C450.391 244.134 449.914 244.644 449.914 245.273V245.604C449.914 246.233 450.391 246.744 450.98 246.744H453.516C454.105 246.744 454.582 246.233 454.582 245.604V245.273C454.582 244.644 454.105 244.134 453.516 244.134Z" fill="white"/>
<path d="M478.965 244.134H476.43C475.841 244.134 475.363 244.644 475.363 245.273V245.604C475.363 246.233 475.841 246.744 476.43 246.744H478.965C479.554 246.744 480.032 246.233 480.032 245.604V245.273C480.032 244.644 479.554 244.134 478.965 244.134Z" fill="white"/>
<path d="M486.175 244.134H483.64C483.051 244.134 482.574 244.644 482.574 245.273V245.604C482.574 246.233 483.051 246.744 483.64 246.744H486.175C486.764 246.744 487.242 246.233 487.242 245.604V245.273C487.242 244.644 486.764 244.134 486.175 244.134Z" fill="white"/>
<path d="M472.043 243.916H457.903C457.314 243.916 456.837 244.426 456.837 245.055V245.387C456.837 246.016 457.314 246.526 457.903 246.526H472.043C472.632 246.526 473.11 246.016 473.11 245.387V245.055C473.11 244.426 472.632 243.916 472.043 243.916Z" fill="white"/>
<path d="M458.606 267.558H456.071C455.482 267.558 455.004 268.068 455.004 268.697V269.029C455.004 269.658 455.482 270.168 456.071 270.168H458.606C459.195 270.168 459.673 269.658 459.673 269.029V268.697C459.673 268.068 459.195 267.558 458.606 267.558Z" fill="white"/>
<path d="M465.816 267.558H463.281C462.692 267.558 462.215 268.068 462.215 268.697V269.029C462.215 269.658 462.692 270.168 463.281 270.168H465.816C466.405 270.168 466.883 269.658 466.883 269.029V268.697C466.883 268.068 466.405 267.558 465.816 267.558Z" fill="white"/>
<path d="M485.616 267.776H471.476C470.887 267.776 470.409 268.286 470.409 268.915V269.246C470.409 269.876 470.887 270.386 471.476 270.386H485.616C486.205 270.386 486.682 269.876 486.682 269.246V268.915C486.682 268.286 486.205 267.776 485.616 267.776Z" fill="white"/>
<path d="M433.156 267.558H430.621C430.032 267.558 429.554 268.068 429.554 268.697V269.029C429.554 269.658 430.032 270.168 430.621 270.168H433.156C433.745 270.168 434.222 269.658 434.222 269.029V268.697C434.222 268.068 433.745 267.558 433.156 267.558Z" fill="white"/>
<path d="M451.683 267.776H437.543C436.954 267.776 436.477 268.286 436.477 268.915V269.246C436.477 269.876 436.954 270.386 437.543 270.386H451.683C452.272 270.386 452.75 269.876 452.75 269.246V268.915C452.75 268.286 452.272 267.776 451.683 267.776Z" fill="white"/>
<path d="M439.943 261.667H437.408C436.819 261.667 436.341 262.177 436.341 262.807V263.138C436.341 263.767 436.819 264.277 437.408 264.277H439.943C440.532 264.277 441.009 263.767 441.009 263.138V262.807C441.009 262.177 440.532 261.667 439.943 261.667Z" fill="white"/>
<path d="M465.392 261.667H462.857C462.268 261.667 461.79 262.177 461.79 262.807V263.138C461.79 263.767 462.268 264.277 462.857 264.277H465.392C465.981 264.277 466.459 263.767 466.459 263.138V262.807C466.459 262.177 465.981 261.667 465.392 261.667Z" fill="white"/>
<path d="M472.603 261.667H470.068C469.479 261.667 469.002 262.177 469.002 262.807V263.138C469.002 263.767 469.479 264.277 470.068 264.277H472.603C473.192 264.277 473.67 263.767 473.67 263.138V262.807C473.67 262.177 473.192 261.667 472.603 261.667Z" fill="white"/>
<path d="M458.47 261.885H444.33C443.741 261.885 443.264 262.395 443.264 263.024V263.355C443.264 263.985 443.741 264.495 444.33 264.495H458.47C459.059 264.495 459.537 263.985 459.537 263.355V263.024C459.537 262.395 459.059 261.885 458.47 261.885Z" fill="white"/>
<path d="M446.729 255.777H444.194C443.605 255.777 443.128 256.287 443.128 256.916V257.247C443.128 257.877 443.605 258.387 444.194 258.387H446.729C447.318 258.387 447.796 257.877 447.796 257.247V256.916C447.796 256.287 447.318 255.777 446.729 255.777Z" fill="white"/>
<path d="M472.178 255.777H469.643C469.054 255.777 468.576 256.287 468.576 256.916V257.247C468.576 257.877 469.054 258.387 469.643 258.387H472.178C472.767 258.387 473.245 257.877 473.245 257.247V256.916C473.245 256.287 472.767 255.777 472.178 255.777Z" fill="white"/>
<path d="M479.389 255.777H476.854C476.265 255.777 475.788 256.287 475.788 256.916V257.247C475.788 257.877 476.265 258.387 476.854 258.387H479.389C479.978 258.387 480.456 257.877 480.456 257.247V256.916C480.456 256.287 479.978 255.777 479.389 255.777Z" fill="white"/>
<path d="M465.256 255.994H451.117C450.528 255.994 450.05 256.504 450.05 257.133V257.465C450.05 258.094 450.528 258.604 451.117 258.604H465.256C465.845 258.604 466.323 258.094 466.323 257.465V257.133C466.323 256.504 465.845 255.994 465.256 255.994Z" fill="white"/>
<path d="M453.516 249.885H450.98C450.391 249.885 449.914 250.396 449.914 251.025V251.356C449.914 251.985 450.391 252.496 450.98 252.496H453.516C454.105 252.496 454.582 251.985 454.582 251.356V251.025C454.582 250.396 454.105 249.885 453.516 249.885Z" fill="white"/>
<path d="M478.965 249.885H476.43C475.841 249.885 475.363 250.396 475.363 251.025V251.356C475.363 251.985 475.841 252.496 476.43 252.496H478.965C479.554 252.496 480.032 251.985 480.032 251.356V251.025C480.032 250.396 479.554 249.885 478.965 249.885Z" fill="white"/>
<path d="M486.175 249.885H483.64C483.051 249.885 482.574 250.396 482.574 251.025V251.356C482.574 251.985 483.051 252.496 483.64 252.496H486.175C486.764 252.496 487.242 251.985 487.242 251.356V251.025C487.242 250.396 486.764 249.885 486.175 249.885Z" fill="white"/>
<path d="M472.043 250.103H457.903C457.314 250.103 456.837 250.613 456.837 251.242V251.574C456.837 252.203 457.314 252.713 457.903 252.713H472.043C472.632 252.713 473.11 252.203 473.11 251.574V251.242C473.11 250.613 472.632 250.103 472.043 250.103Z" fill="white"/>
<path d="M176.07 208.692V294.429H232.293V208.692C232.294 208.075 232.11 207.475 231.768 206.978C231.425 206.481 230.943 206.115 230.392 205.933C230.132 205.841 229.859 205.796 229.585 205.799H178.785C178.429 205.799 178.076 205.873 177.747 206.018C177.418 206.163 177.118 206.376 176.866 206.645C176.614 206.913 176.414 207.232 176.277 207.584C176.141 207.935 176.07 208.312 176.07 208.692ZM198.014 238.152C198.014 236.451 198.646 234.82 199.772 233.618C200.897 232.415 202.424 231.74 204.016 231.74C205.607 231.74 207.134 232.415 208.26 233.618C209.385 234.82 210.018 236.451 210.018 238.152V248.1C210.018 249.8 209.385 251.431 208.26 252.634C207.134 253.836 205.607 254.512 204.016 254.512C202.424 254.512 200.897 253.836 199.772 252.634C198.646 251.431 198.014 249.8 198.014 248.1V238.152Z" fill="#1F213A"/>
<path d="M175.897 291.687V299.955C175.899 300.383 176.058 300.794 176.341 301.097C176.624 301.401 177.007 301.573 177.408 301.577H230.955C231.356 301.575 231.741 301.403 232.024 301.099C232.307 300.795 232.466 300.384 232.466 299.955V291.687H175.897Z" fill="#2B2E50"/>
<path d="M87.6233 79.5177V236.062C87.6247 238.057 88.3672 239.97 89.6875 241.38C91.0079 242.791 92.7983 243.584 94.6656 243.585H311.812C313.679 243.584 315.47 242.791 316.79 241.38C318.11 239.97 318.853 238.057 318.854 236.062V79.5177C318.85 77.5242 318.107 75.6136 316.787 74.2045C315.467 72.7954 313.678 72.0027 311.812 72H94.6656C92.7995 72.0025 91.0105 72.7952 89.6905 74.2043C88.3704 75.6134 87.6271 77.5241 87.6233 79.5177Z" fill="#2B2E50"/>
<path d="M92.717 81.4655V234.131C92.7188 235.196 93.1159 236.218 93.8214 236.972C94.5268 237.725 95.4831 238.149 96.4807 238.151H310.003C311 238.149 311.957 237.725 312.662 236.972C313.367 236.218 313.765 235.196 313.766 234.131V81.4655C313.766 80.3983 313.37 79.3747 312.665 78.6192C311.959 77.8638 311.002 77.4382 310.003 77.4359H96.4807C95.4818 77.4382 94.5245 77.8638 93.8189 78.6192C93.1133 79.3747 92.717 80.3983 92.717 81.4655Z" fill="#F8F8FA"/>
<path d="M132.345 301.017C132.562 301.308 132.838 301.542 133.153 301.703C133.467 301.864 133.812 301.946 134.16 301.944H261.19C261.538 301.944 261.881 301.861 262.194 301.701C262.507 301.541 262.784 301.308 263.002 301.02C263.221 300.732 263.377 300.395 263.459 300.035C263.541 299.674 263.546 299.298 263.475 298.935L261.503 288.929C261.421 288.521 261.246 288.141 260.991 287.824C260.737 287.507 260.413 287.264 260.048 287.115C259.784 287.004 259.502 286.947 259.219 286.948H136.123C135.839 286.947 135.558 287.004 135.294 287.115C134.929 287.264 134.604 287.507 134.35 287.824C134.096 288.141 133.92 288.521 133.838 288.929L131.867 298.935C131.797 299.298 131.803 299.674 131.886 300.034C131.969 300.394 132.125 300.73 132.345 301.017Z" fill="#1F213A"/>
<path d="M303.073 98.4666H103.282C103.071 98.4666 102.869 98.3772 102.72 98.218C102.571 98.0588 102.487 97.8429 102.487 97.6178C102.487 97.3927 102.571 97.1767 102.72 97.0175C102.869 96.8584 103.071 96.7689 103.282 96.7689H303.074C303.285 96.7689 303.487 96.8584 303.636 97.0175C303.785 97.1767 303.868 97.3927 303.868 97.6178C303.868 97.8429 303.785 98.0588 303.636 98.218C303.487 98.3772 303.284 98.4666 303.073 98.4666Z" fill="#2B2E50"/>
<path d="M116.882 92.4341C119.453 92.4341 121.537 90.1574 121.537 87.3491C121.537 84.5407 119.453 82.264 116.882 82.264C114.31 82.264 112.226 84.5407 112.226 87.3491C112.226 90.1574 114.31 92.4341 116.882 92.4341Z" fill="#2B2E50"/>
<path d="M132.966 92.4341C135.538 92.4341 137.622 90.1574 137.622 87.3491C137.622 84.5407 135.538 82.264 132.966 82.264C130.395 82.264 128.311 84.5407 128.311 87.3491C128.311 90.1574 130.395 92.4341 132.966 92.4341Z" fill="#2B2E50"/>
<path d="M149.051 92.4341C151.623 92.4341 153.707 90.1574 153.707 87.3491C153.707 84.5407 151.623 82.264 149.051 82.264C146.48 82.264 144.396 84.5407 144.396 87.3491C144.396 90.1574 146.48 92.4341 149.051 92.4341Z" fill="#2B2E50"/>
<path d="M420.453 286.871H515.131L516.996 293.559H420.453V286.871Z" fill="#2B2E50"/>
<path d="M293.388 83.5216H281.963C281.738 83.5284 281.524 83.6286 281.367 83.8011C281.21 83.9736 281.122 84.2047 281.122 84.4453C281.122 84.6858 281.21 84.9169 281.367 85.0894C281.524 85.2619 281.738 85.3622 281.963 85.3689H293.387C293.503 85.3724 293.618 85.351 293.725 85.3062C293.833 85.2613 293.931 85.1939 294.014 85.1078C294.097 85.0216 294.163 84.9186 294.208 84.8048C294.253 84.6911 294.276 84.5688 294.276 84.4453C294.276 84.3217 294.253 84.1994 294.208 84.0856C294.163 83.9719 294.097 83.8689 294.014 83.7827C293.931 83.6966 293.833 83.6292 293.725 83.5843C293.618 83.5394 293.503 83.5181 293.387 83.5216H293.388Z" fill="#2B2E50"/>
<path d="M293.387 86.9908H281.963C281.733 86.9908 281.513 87.0882 281.351 87.2615C281.189 87.4348 281.098 87.6698 281.098 87.9149C281.098 88.1599 281.189 88.395 281.351 88.5682C281.513 88.7415 281.733 88.8389 281.963 88.8389H293.387C293.502 88.8423 293.618 88.821 293.725 88.7762C293.833 88.7313 293.931 88.6638 294.014 88.5777C294.097 88.4916 294.163 88.3886 294.208 88.2748C294.253 88.161 294.276 88.0388 294.276 87.9152C294.276 87.7917 294.253 87.6694 294.208 87.5556C294.163 87.4418 294.097 87.3388 294.014 87.2527C293.931 87.1666 293.833 87.0991 293.725 87.0543C293.618 87.0094 293.502 86.9881 293.387 86.9916V86.9908Z" fill="#2B2E50"/>
<path d="M293.388 90.4606H281.963C281.738 90.4673 281.524 90.5676 281.367 90.7401C281.21 90.9126 281.122 91.1437 281.122 91.3842C281.122 91.6248 281.21 91.8559 281.367 92.0284C281.524 92.2008 281.738 92.3011 281.963 92.3079H293.387C293.503 92.3114 293.618 92.29 293.725 92.2452C293.833 92.2003 293.931 92.1328 294.014 92.0467C294.097 91.9606 294.163 91.8576 294.208 91.7438C294.253 91.63 294.276 91.5078 294.276 91.3842C294.276 91.2607 294.253 91.1384 294.208 91.0246C294.163 90.9108 294.097 90.8078 294.014 90.7217C293.931 90.6356 293.833 90.5681 293.725 90.5233C293.618 90.4784 293.503 90.4571 293.387 90.4606H293.388Z" fill="#2B2E50"/>
<path d="M362.492 230.154C362.492 230.154 301.775 237.976 307.573 230.154C309.672 227.324 310.252 218.941 310.135 209.39C310.099 206.489 309.999 203.484 309.862 200.492C309.191 186.15 307.574 172.133 307.574 172.133C307.574 172.133 360.664 145.405 354.561 166.592C352.12 175.152 352.922 187.174 354.775 198.457C355.318 201.75 355.947 204.977 356.606 208.041C358.214 215.514 360.178 222.895 362.492 230.154Z" fill="#ED9DA0"/>
<path d="M247.246 344.48V343.932L354.413 342.687L419.707 342.035H419.89L419.821 343L419.913 342.035H420.029V341.925L420.865 333.157L421.182 329.839L421.28 328.802L421.365 327.935L425.137 314.499L428.908 301.082L432.081 289.785L436.926 272.522C436.926 272.522 434.181 265.676 432.655 263.721C431.129 261.766 425.14 247.769 425.14 247.769C425.14 247.769 416.584 235.148 410.891 233.623C408.506 232.971 403.794 232.104 398.791 231.015C396.917 230.61 382.56 226.18 381.705 225.565C377.22 222.051 365.979 221.653 365.546 221.653C365.545 221.638 365.545 221.623 365.546 221.607V221.549C365.562 221.276 365.562 221.001 365.546 220.728C365.553 220.423 365.534 220.117 365.491 219.816C365.498 219.705 365.483 219.594 365.448 219.489C365.418 219.254 365.38 219.007 365.326 218.746C365.308 218.63 365.283 218.515 365.253 218.401C365.076 217.616 364.82 216.853 364.49 216.126C364.447 216.022 364.392 215.911 364.344 215.806C364.045 215.204 363.698 214.631 363.307 214.092C363.227 213.981 363.142 213.863 363.05 213.753C362.55 213.124 361.994 212.547 361.39 212.032C361.226 211.895 361.055 211.752 360.878 211.621C360.779 211.536 360.675 211.457 360.566 211.386L360.023 211.008L359.517 210.695C359.071 210.435 358.601 210.18 358.089 209.939C357.931 209.861 357.76 209.789 357.589 209.72C357.418 209.651 357.15 209.538 356.924 209.446H356.887L356.429 209.251C356.081 209.127 355.727 209.016 355.355 208.905L354.787 208.749L354.177 208.6L353.567 208.462C352.957 208.332 352.304 208.215 351.621 208.124L350.925 208.033L350.211 207.954L349.473 207.889L348.423 207.825L347.203 207.779C341.818 207.778 336.448 208.388 331.184 209.599C327.53 208.731 323.788 208.363 320.048 208.504H319.517L318.907 208.543H318.515L317.728 208.622C317.461 208.635 317.196 208.668 316.934 208.719C316.672 208.759 316.397 208.792 316.135 208.837L315.733 208.91C315.336 208.983 314.933 209.059 314.512 209.151C314.378 209.177 314.244 209.21 314.11 209.249C313.579 209.373 313.048 209.522 312.524 209.692C312.261 209.77 311.999 209.861 311.737 209.959C311.6 209.998 311.474 210.05 311.346 210.105L310.955 210.254L310.57 210.417L310.113 210.613C309.881 210.717 309.655 210.828 309.43 210.945C309.301 211.004 309.173 211.07 309.051 211.141C308.929 211.213 308.801 211.272 308.685 211.343C307.305 212.105 306.03 213.066 304.895 214.199L304.584 214.518L304.278 214.851C304.174 214.962 304.077 215.079 303.979 215.196C303.581 215.661 303.21 216.151 302.868 216.663C302.77 216.8 302.679 216.937 302.587 217.081C302.2 217.691 301.85 218.327 301.538 218.984C301.459 219.14 301.386 219.304 301.313 219.46C300.815 220.561 300.406 221.706 300.092 222.882C299.979 223.317 299.875 223.752 299.781 224.186C299.781 224.186 286.862 230.275 276.147 234.682C273.298 235.856 270.613 236.919 268.367 237.72C267.714 237.954 267.104 238.17 266.536 238.372C265.305 238.847 264.024 239.162 262.723 239.31C262.109 239.321 261.497 239.382 260.892 239.493C255.967 240.347 247.528 244.056 246.606 247.779C246.531 248.076 246.511 248.386 246.545 248.691C246.545 248.691 226.475 315.076 226.255 316.295C225.367 321.263 223.385 330.722 222.41 334.548C221.684 337.404 220.629 341.315 219.902 344.001C219.891 344.08 219.871 344.156 219.842 344.229L247.198 343.943V344.49H247.283L247.246 344.48Z" fill="#262E58"/>
<path d="M365.58 220.753C347.886 224.234 314.566 223.484 300.165 222.956C305.443 202.747 331.182 209.618 331.182 209.618C363.042 202.825 365.483 216.92 365.58 220.753Z" fill="#262E58"/>
<path d="M459.518 309.85C459.518 309.85 480.362 306.428 480.772 316.207C481.181 325.986 470.142 332.817 470.142 332.817L459.518 309.85Z" fill="#ED9DA0"/>
<path d="M474.974 329.407C474.974 329.407 474.431 330.789 473.43 332.791C471.916 335.87 470.073 338.751 467.938 341.376L467.773 341.565H466.785L431.55 341.911H430.708L430.604 341.78L423.772 333.116L421.197 329.85L421.094 329.713L420.874 329.439L420.752 329.283L420.593 329.081L415.584 322.731L417.415 314.582L420.533 300.852L420.612 300.52L421.222 297.912L421.655 295.956L423.108 289.58L428.087 267.643L436.935 272.533L446.264 290.14L451.273 299.593H454.018C454.536 299.593 455.726 300.662 456.923 301.894C457.35 302.332 457.777 302.794 458.143 303.197C459.229 304.397 460.089 305.427 460.089 305.427C460.089 305.427 464.538 305.532 465.734 309.274C465.796 309.455 465.846 309.64 465.886 309.828C466.283 311.298 466.8 312.729 467.43 314.104C468.217 315.936 469.206 318.015 470.207 320.095C472.068 323.908 473.959 327.539 474.655 328.853L474.74 329.016L474.974 329.407Z" fill="#262E58"/>
<path d="M247.424 359.968V359.25L354.634 357.617L419.955 356.762H420.138V356.617L420.748 345.132L421.011 340.003L422.012 320.67L422.8 305.369V304.993C422.836 304.287 422.813 303.579 422.731 302.881C422.735 302.853 422.735 302.824 422.731 302.796C422.564 301.354 422.144 299.991 421.511 298.83C420.838 297.623 419.958 296.675 418.951 296.077C417.945 295.479 416.847 295.249 415.76 295.41C408.367 296.471 400.901 297.317 393.429 297.975C392.409 298.078 391.39 298.167 390.376 298.24C342.186 302.25 294.429 299.001 268.588 296.531L266.756 296.34C262.281 295.895 258.539 295.485 255.658 295.135C254.073 294.947 252.494 295.589 251.227 296.936C249.96 298.282 249.094 300.238 248.796 302.427C248.735 302.889 248.698 303.358 248.686 303.829L248.272 322.772L247.704 346.768L247.435 359.043V360L247.424 359.968Z" fill="#10101D"/>
<path d="M327.066 202.238C346.587 202.238 362.412 185.332 362.412 164.477C362.412 143.622 346.587 126.715 327.066 126.715C307.545 126.715 291.72 143.622 291.72 164.477C291.72 185.332 307.545 202.238 327.066 202.238Z" fill="#ED9DA0"/>
<path d="M374.84 138.101C374.566 137.788 374.236 137.537 373.87 137.364C373.503 137.191 373.108 137.098 372.707 137.092L373.238 135.515C373.411 135.019 373.457 134.482 373.372 133.96C373.287 133.438 373.074 132.95 372.754 132.545C372.435 132.14 372.02 131.833 371.553 131.655C371.086 131.477 370.583 131.435 370.096 131.533L368.16 131.931L368.343 130.549C368.413 130.035 368.357 129.509 368.18 129.025C368.002 128.541 367.71 128.114 367.331 127.787C366.952 127.461 366.5 127.245 366.02 127.162C365.539 127.078 365.047 127.13 364.59 127.312C364.176 127.487 363.729 127.56 363.285 127.526C362.84 127.493 362.408 127.353 362.02 127.118C361.631 126.889 361.293 126.573 361.03 126.191C360.767 125.809 360.585 125.37 360.498 124.905L359.823 121.431L359.755 121.245C356.471 115.397 350.157 111.144 342.43 109.584C335.552 108.185 328.5 108.898 321.702 109.567C319.005 109.839 315.959 110.144 313.42 111.804C311.263 113.228 309.438 116.075 309.811 118.948C303.108 116.753 295.921 121.138 292.36 126.66C288.139 133.236 287.449 141.476 287.338 147.914C287.037 163.151 289.98 175.618 296.064 184.973C296.508 185.651 296.619 187.066 297.499 187.541L297.316 187.227C298.3 187.752 299.297 188.6 298.926 189.506C297.856 192.116 304.971 197.887 309.985 199.797C319.131 203.28 331.291 202.984 339.84 201.729L340.141 199.568C343.227 199.119 345.402 198.263 346.011 196.924C347.09 195.941 348.01 195.06 348.812 194.246L348.82 194.237C348.836 194.22 348.868 194.195 348.884 194.178C352.747 190.221 353.644 187.966 354.048 184.534C354.437 181.17 353.747 177.755 353.04 174.681C367.906 177.139 347.186 157.766 361.034 154.02C361.193 153.968 361.354 153.925 361.517 153.893C361.922 153.791 362.326 153.689 362.715 153.571C364.588 153.028 366.382 152.209 368.044 151.139C371.915 148.623 373.193 145.283 375.192 141.521C375.48 140.985 375.601 140.365 375.537 139.751C375.473 139.137 375.227 138.56 374.835 138.106L374.84 138.101Z" fill="#10101D"/>
<path d="M173.182 129.709H232.652C233.897 129.709 235.091 130.237 235.972 131.178C236.852 132.118 237.347 133.394 237.347 134.724C237.347 136.055 236.852 137.33 235.972 138.271C235.091 139.212 233.897 139.74 232.652 139.74H173.182C171.937 139.74 170.742 139.212 169.862 138.271C168.981 137.33 168.487 136.055 168.487 134.724C168.487 133.394 168.981 132.118 169.862 131.178C170.742 130.237 171.937 129.709 173.182 129.709Z" fill="#1F213A"/>
<path d="M157.532 153.116H248.303C249.548 153.116 250.742 153.644 251.622 154.585C252.503 155.525 252.998 156.801 252.998 158.131C252.998 159.462 252.503 160.737 251.622 161.678C250.742 162.619 249.548 163.147 248.303 163.147H157.532C156.287 163.147 155.093 162.619 154.212 161.678C153.332 160.737 152.837 159.462 152.837 158.131C152.837 156.801 153.332 155.525 154.212 154.585C155.093 153.644 156.287 153.116 157.532 153.116Z" fill="#D6D8E3"/>
<path d="M157.532 176.523H248.303C249.548 176.523 250.742 177.052 251.622 177.992C252.503 178.933 252.998 180.209 252.998 181.539C252.998 182.869 252.503 184.145 251.622 185.086C250.742 186.026 249.548 186.555 248.303 186.555H157.532C156.287 186.555 155.093 186.026 154.212 185.086C153.332 184.145 152.837 182.869 152.837 181.539C152.837 180.209 153.332 178.933 154.212 177.992C155.093 177.052 156.287 176.523 157.532 176.523Z" fill="#D6D8E3"/>
<defs>
<radialGradient id="paint0_radial_185_4" cx="0" cy="0" r="1" gradientUnits="userSpaceOnUse" gradientTransform="translate(320 218.801) rotate(90) scale(218.801 320)">
<stop stop-color="white"/>
<stop offset="0.105769" stop-color="#AFD4FB"/>
<stop offset="0.201923" stop-color="#8DBEF6"/>
<stop offset="0.307692" stop-color="#73A5E4"/>
<stop offset="0.480769" stop-color="#4865A6"/>
<stop offset="0.548077" stop-color="#3C538F"/>
<stop offset="0.735577" stop-color="#252F58"/>
<stop offset="0.879808" stop-color="#191E37"/>
<stop offset="0.923077" stop-color="#181B31"/>
<stop offset="1" stop-color="#171721"/>
</radialGradient>
</defs>
</svg>
