<svg width="480" height="240" viewBox="0 0 480 240" fill="none" xmlns="http://www.w3.org/2000/svg">
<rect width="480" height="240" fill="white"/>
<rect width="50" height="50" transform="translate(215 95)" fill="white"/>
<path d="M238.75 103.75H230C229.312 103.75 228.75 104.312 228.75 105V135C228.75 135.688 229.312 136.25 230 136.25H250C250.688 136.25 251.25 135.688 251.25 135V116.25H244.375C241.266 116.25 238.75 113.734 238.75 110.625V103.75ZM249.695 112.5L242.5 105.305V110.625C242.5 111.664 243.336 112.5 244.375 112.5H249.695ZM225 105C225 102.242 227.242 100 230 100H240.43C241.758 100 243.031 100.523 243.969 101.461L253.539 111.039C254.477 111.977 255 113.25 255 114.578V135C255 137.758 252.758 140 250 140H230C227.242 140 225 137.758 225 135V105ZM245.266 133.75H234.734C233.5 133.75 232.5 132.75 232.5 131.516C232.5 131.016 232.664 130.539 232.969 130.141L238.25 123.352C238.672 122.812 239.32 122.5 240 122.5C240.68 122.5 241.328 122.812 241.75 123.352L247.031 130.148C247.336 130.539 247.5 131.023 247.5 131.523C247.5 132.758 246.5 133.758 245.266 133.758V133.75ZM233.75 117.5C235.133 117.5 236.25 118.617 236.25 120C236.25 121.383 235.133 122.5 233.75 122.5C232.367 122.5 231.25 121.383 231.25 120C231.25 118.617 232.367 117.5 233.75 117.5Z" fill="black" fill-opacity="0.5"/>
</svg>
